<mxfile host="app.diagrams.net" modified="2023-01-14T07:03:05.366Z" agent="5.0 (X11; Linux x86_64) AppleWebKit/537.36 (KHTML, like Gecko) Chrome/108.0.0.0 Safari/537.36" etag="SgqBq4udjnWWK3F0iNmy" version="20.8.5" type="github">
  <diagram id="Hkj4WFlvK4-08UBy-HWi" name="Page-1">
    <mxGraphModel dx="1218" dy="785" grid="1" gridSize="10" guides="1" tooltips="1" connect="1" arrows="1" fold="1" page="1" pageScale="1" pageWidth="850" pageHeight="1100" math="0" shadow="0">
      <root>
        <mxCell id="0" />
        <mxCell id="1" parent="0" />
        <mxCell id="1bVyddex_vhO6T4n7lc5-1" value="Floor: 3" style="text;strokeColor=none;fillColor=none;html=1;fontSize=24;fontStyle=1;verticalAlign=middle;align=center;" parent="1" vertex="1">
          <mxGeometry x="40" y="40" width="100" height="40" as="geometry" />
        </mxCell>
        <mxCell id="1bVyddex_vhO6T4n7lc5-2" value="Room: 9" style="text;strokeColor=none;fillColor=none;html=1;fontSize=24;fontStyle=1;verticalAlign=middle;align=center;" parent="1" vertex="1">
          <mxGeometry x="160" y="40" width="100" height="40" as="geometry" />
        </mxCell>
        <mxCell id="1bVyddex_vhO6T4n7lc5-31" value="" style="verticalLabelPosition=bottom;html=1;verticalAlign=top;align=center;shape=mxgraph.floorplan.wall;fillColor=strokeColor;" parent="1" vertex="1">
          <mxGeometry x="385" y="980" width="140" height="10" as="geometry" />
        </mxCell>
        <mxCell id="1bVyddex_vhO6T4n7lc5-35" value="" style="verticalLabelPosition=bottom;html=1;verticalAlign=top;align=center;shape=mxgraph.floorplan.wall;fillColor=strokeColor;" parent="1" vertex="1">
          <mxGeometry x="125" y="980" width="40" height="10" as="geometry" />
        </mxCell>
        <mxCell id="1bVyddex_vhO6T4n7lc5-38" value="Plants view" style="text;strokeColor=none;fillColor=none;html=1;fontSize=24;fontStyle=0;verticalAlign=middle;align=center;" parent="1" vertex="1">
          <mxGeometry x="215" y="600" width="100" height="40" as="geometry" />
        </mxCell>
        <mxCell id="1bVyddex_vhO6T4n7lc5-39" value="" style="endArrow=classic;html=1;rounded=0;dashed=1;dashPattern=8 8;" parent="1" edge="1">
          <mxGeometry width="50" height="50" relative="1" as="geometry">
            <mxPoint x="265" y="650" as="sourcePoint" />
            <mxPoint x="265" y="760" as="targetPoint" />
          </mxGeometry>
        </mxCell>
        <mxCell id="1bVyddex_vhO6T4n7lc5-40" value="entrance" style="edgeLabel;html=1;align=center;verticalAlign=middle;resizable=0;points=[];fontSize=14;" parent="1bVyddex_vhO6T4n7lc5-39" vertex="1" connectable="0">
          <mxGeometry x="-0.5444" y="-3" relative="1" as="geometry">
            <mxPoint as="offset" />
          </mxGeometry>
        </mxCell>
        <mxCell id="1bVyddex_vhO6T4n7lc5-41" value="" style="shape=dimension;direction=south;whiteSpace=wrap;html=1;align=left;points=[];verticalAlign=middle;labelBackgroundColor=#ffffff;fillColor=#0F0F0F;" parent="1" vertex="1">
          <mxGeometry x="342" y="720" width="50" height="260" as="geometry" />
        </mxCell>
        <mxCell id="1bVyddex_vhO6T4n7lc5-47" value="" style="curved=1;endArrow=none;html=1;rounded=0;dashed=1;dashPattern=8 8;strokeColor=default;endFill=0;" parent="1" edge="1">
          <mxGeometry width="50" height="50" relative="1" as="geometry">
            <mxPoint x="120" y="1010" as="sourcePoint" />
            <mxPoint x="120" y="670" as="targetPoint" />
            <Array as="points">
              <mxPoint x="140" y="900" />
              <mxPoint x="70" y="860" />
              <mxPoint x="90" y="760" />
            </Array>
          </mxGeometry>
        </mxCell>
        <mxCell id="1bVyddex_vhO6T4n7lc5-48" value="Floor: 2" style="text;strokeColor=none;fillColor=none;html=1;fontSize=24;fontStyle=1;verticalAlign=middle;align=center;" parent="1" vertex="1">
          <mxGeometry x="40" y="520" width="100" height="40" as="geometry" />
        </mxCell>
        <mxCell id="1bVyddex_vhO6T4n7lc5-49" value="Room: 10" style="text;strokeColor=none;fillColor=none;html=1;fontSize=24;fontStyle=1;verticalAlign=middle;align=center;" parent="1" vertex="1">
          <mxGeometry x="160" y="520" width="100" height="40" as="geometry" />
        </mxCell>
        <mxCell id="oBSs_YmFE9YkTBr1z26G-1" value="" style="verticalLabelPosition=bottom;html=1;verticalAlign=top;align=center;shape=mxgraph.floorplan.wall;fillColor=strokeColor;direction=south;fontSize=14;" parent="1" vertex="1">
          <mxGeometry x="525" y="720" width="10" height="270" as="geometry" />
        </mxCell>
        <mxCell id="oBSs_YmFE9YkTBr1z26G-2" value="" style="rounded=0;whiteSpace=wrap;html=1;fillColor=#0F0F0F;" parent="1" vertex="1">
          <mxGeometry x="485" y="720" width="40" height="40" as="geometry" />
        </mxCell>
        <mxCell id="oBSs_YmFE9YkTBr1z26G-4" value="" style="endArrow=none;dashed=1;html=1;rounded=0;dashPattern=8 8;strokeColor=default;fontSize=14;entryX=0;entryY=0;entryDx=0;entryDy=0;startArrow=none;" parent="1" target="oBSs_YmFE9YkTBr1z26G-2" edge="1" source="Dw6zSHdeWeAoXAIMalIu-27">
          <mxGeometry width="50" height="50" relative="1" as="geometry">
            <mxPoint x="105" y="720" as="sourcePoint" />
            <mxPoint x="465" y="740" as="targetPoint" />
          </mxGeometry>
        </mxCell>
        <mxCell id="oBSs_YmFE9YkTBr1z26G-5" value="" style="shape=dimension;whiteSpace=wrap;html=1;align=center;points=[];verticalAlign=bottom;spacingBottom=-5;labelBackgroundColor=#ffffff;fontSize=14;fillColor=#0F0F0F;" parent="1" vertex="1">
          <mxGeometry x="485" y="760" width="40" height="40" as="geometry" />
        </mxCell>
        <mxCell id="oBSs_YmFE9YkTBr1z26G-6" value="" style="shape=dimension;direction=south;whiteSpace=wrap;html=1;align=left;points=[];verticalAlign=middle;labelBackgroundColor=#ffffff;fontSize=14;fillColor=#0F0F0F;" parent="1" vertex="1">
          <mxGeometry x="435" y="720" width="50" height="40" as="geometry" />
        </mxCell>
        <mxCell id="oBSs_YmFE9YkTBr1z26G-9" value="" style="shape=dimension;direction=west;whiteSpace=wrap;html=1;align=center;points=[];verticalAlign=top;spacingTop=-8;labelBackgroundColor=#ffffff;fontSize=14;fillColor=#0F0F0F;" parent="1" vertex="1">
          <mxGeometry x="385" y="930" width="140" height="60" as="geometry" />
        </mxCell>
        <mxCell id="Dw6zSHdeWeAoXAIMalIu-1" value="" style="verticalLabelPosition=bottom;html=1;verticalAlign=top;align=center;shape=mxgraph.floorplan.plant;" vertex="1" parent="1">
          <mxGeometry x="90" y="200" width="47" height="51" as="geometry" />
        </mxCell>
        <mxCell id="Dw6zSHdeWeAoXAIMalIu-2" value="" style="verticalLabelPosition=bottom;html=1;verticalAlign=top;align=center;shape=mxgraph.floorplan.wall;fillColor=strokeColor;" vertex="1" parent="1">
          <mxGeometry x="420" y="460" width="40" height="10" as="geometry" />
        </mxCell>
        <mxCell id="Dw6zSHdeWeAoXAIMalIu-3" value="" style="verticalLabelPosition=bottom;html=1;verticalAlign=top;align=center;shape=mxgraph.floorplan.plant;" vertex="1" parent="1">
          <mxGeometry x="127" y="302" width="47" height="51" as="geometry" />
        </mxCell>
        <mxCell id="Dw6zSHdeWeAoXAIMalIu-4" value="" style="verticalLabelPosition=bottom;html=1;verticalAlign=top;align=center;shape=mxgraph.floorplan.plant;" vertex="1" parent="1">
          <mxGeometry x="127" y="353" width="47" height="51" as="geometry" />
        </mxCell>
        <mxCell id="Dw6zSHdeWeAoXAIMalIu-5" value="" style="verticalLabelPosition=bottom;html=1;verticalAlign=top;align=center;shape=mxgraph.floorplan.wall;fillColor=strokeColor;" vertex="1" parent="1">
          <mxGeometry x="130" y="460" width="140" height="10" as="geometry" />
        </mxCell>
        <mxCell id="Dw6zSHdeWeAoXAIMalIu-6" value="" style="verticalLabelPosition=bottom;html=1;verticalAlign=top;align=center;shape=mxgraph.floorplan.plant;" vertex="1" parent="1">
          <mxGeometry x="129" y="404" width="47" height="51" as="geometry" />
        </mxCell>
        <mxCell id="Dw6zSHdeWeAoXAIMalIu-7" value="" style="rounded=0;whiteSpace=wrap;html=1;fillColor=#0F0F0F;" vertex="1" parent="1">
          <mxGeometry x="147" y="200" width="63" height="50" as="geometry" />
        </mxCell>
        <mxCell id="Dw6zSHdeWeAoXAIMalIu-8" value="Sea view" style="text;strokeColor=none;fillColor=none;html=1;fontSize=24;fontStyle=0;verticalAlign=middle;align=center;" vertex="1" parent="1">
          <mxGeometry x="290" y="110" width="100" height="40" as="geometry" />
        </mxCell>
        <mxCell id="Dw6zSHdeWeAoXAIMalIu-9" value="" style="endArrow=classic;html=1;rounded=0;dashed=1;dashPattern=8 8;" edge="1" parent="1">
          <mxGeometry width="50" height="50" relative="1" as="geometry">
            <mxPoint x="350" y="510" as="sourcePoint" />
            <mxPoint x="350" y="390" as="targetPoint" />
          </mxGeometry>
        </mxCell>
        <mxCell id="Dw6zSHdeWeAoXAIMalIu-10" value="entrance" style="edgeLabel;html=1;align=center;verticalAlign=middle;resizable=0;points=[];fontSize=14;" vertex="1" connectable="0" parent="Dw6zSHdeWeAoXAIMalIu-9">
          <mxGeometry x="-0.5444" y="-3" relative="1" as="geometry">
            <mxPoint as="offset" />
          </mxGeometry>
        </mxCell>
        <mxCell id="Dw6zSHdeWeAoXAIMalIu-11" value="" style="shape=dimension;direction=south;whiteSpace=wrap;html=1;align=left;points=[];verticalAlign=middle;labelBackgroundColor=#ffffff;fillColor=#0F0F0F;" vertex="1" parent="1">
          <mxGeometry x="70" y="200" width="90" height="260" as="geometry" />
        </mxCell>
        <mxCell id="Dw6zSHdeWeAoXAIMalIu-12" value="" style="shape=dimension;direction=west;whiteSpace=wrap;html=1;align=center;points=[];verticalAlign=top;spacingTop=-8;labelBackgroundColor=#ffffff;fillColor=#0F0F0F;" vertex="1" parent="1">
          <mxGeometry x="147" y="170" width="63" height="30" as="geometry" />
        </mxCell>
        <mxCell id="Dw6zSHdeWeAoXAIMalIu-13" value="" style="endArrow=none;dashed=1;html=1;rounded=0;dashPattern=8 8;exitX=1;exitY=0;exitDx=0;exitDy=0;" edge="1" parent="1" source="Dw6zSHdeWeAoXAIMalIu-7">
          <mxGeometry width="50" height="50" relative="1" as="geometry">
            <mxPoint x="480" y="320" as="sourcePoint" />
            <mxPoint x="450" y="200" as="targetPoint" />
          </mxGeometry>
        </mxCell>
        <mxCell id="Dw6zSHdeWeAoXAIMalIu-14" value="" style="curved=1;endArrow=none;html=1;rounded=0;dashed=1;dashPattern=8 8;strokeColor=default;endFill=0;" edge="1" parent="1">
          <mxGeometry width="50" height="50" relative="1" as="geometry">
            <mxPoint x="460" y="490" as="sourcePoint" />
            <mxPoint x="480" y="120" as="targetPoint" />
            <Array as="points">
              <mxPoint x="480" y="380" />
              <mxPoint x="410" y="340" />
              <mxPoint x="430" y="240" />
            </Array>
          </mxGeometry>
        </mxCell>
        <mxCell id="Dw6zSHdeWeAoXAIMalIu-15" value="" style="shape=dimension;whiteSpace=wrap;html=1;align=center;points=[];verticalAlign=bottom;spacingBottom=-5;labelBackgroundColor=#ffffff;fontSize=14;fillColor=#0F0F0F;" vertex="1" parent="1">
          <mxGeometry x="150" y="470" width="120" height="40" as="geometry" />
        </mxCell>
        <mxCell id="Dw6zSHdeWeAoXAIMalIu-16" value="2480" style="text;html=1;strokeColor=none;fillColor=none;align=center;verticalAlign=middle;whiteSpace=wrap;rounded=0;rotation=270;" vertex="1" parent="1">
          <mxGeometry x="20" y="315" width="60" height="30" as="geometry" />
        </mxCell>
        <mxCell id="Dw6zSHdeWeAoXAIMalIu-17" value="" style="endArrow=none;dashed=1;html=1;rounded=0;dashPattern=8 8;entryX=0;entryY=1;entryDx=0;entryDy=0;exitX=1;exitY=0.056;exitDx=0;exitDy=0;exitPerimeter=0;" edge="1" parent="1">
          <mxGeometry width="50" height="50" relative="1" as="geometry">
            <mxPoint x="176.92000000000007" y="460" as="sourcePoint" />
            <mxPoint x="174" y="250" as="targetPoint" />
          </mxGeometry>
        </mxCell>
        <mxCell id="Dw6zSHdeWeAoXAIMalIu-18" value="" style="verticalLabelPosition=bottom;html=1;verticalAlign=top;align=center;shape=mxgraph.floorplan.plant;" vertex="1" parent="1">
          <mxGeometry x="123" y="251" width="47" height="51" as="geometry" />
        </mxCell>
        <mxCell id="Dw6zSHdeWeAoXAIMalIu-19" value="270" style="text;html=1;strokeColor=none;fillColor=none;align=center;verticalAlign=middle;whiteSpace=wrap;rounded=0;" vertex="1" parent="1">
          <mxGeometry x="150" y="140" width="60" height="30" as="geometry" />
        </mxCell>
        <mxCell id="Dw6zSHdeWeAoXAIMalIu-20" value="1310" style="text;html=1;strokeColor=none;fillColor=none;align=center;verticalAlign=middle;whiteSpace=wrap;rounded=0;" vertex="1" parent="1">
          <mxGeometry x="174" y="475" width="60" height="30" as="geometry" />
        </mxCell>
        <mxCell id="Dw6zSHdeWeAoXAIMalIu-21" value="100" style="shape=dimension;whiteSpace=wrap;html=1;align=center;points=[];verticalAlign=bottom;spacingBottom=-5;labelBackgroundColor=#ffffff" vertex="1" parent="1">
          <mxGeometry x="174" y="251" width="36" height="40" as="geometry" />
        </mxCell>
        <mxCell id="Dw6zSHdeWeAoXAIMalIu-22" value="" style="endArrow=none;dashed=1;html=1;rounded=0;dashPattern=8 8;entryX=0;entryY=1;entryDx=0;entryDy=0;exitX=1;exitY=0.056;exitDx=0;exitDy=0;exitPerimeter=0;" edge="1" parent="1">
          <mxGeometry width="50" height="50" relative="1" as="geometry">
            <mxPoint x="149.92000000000007" y="461" as="sourcePoint" />
            <mxPoint x="147" y="251" as="targetPoint" />
          </mxGeometry>
        </mxCell>
        <mxCell id="Dw6zSHdeWeAoXAIMalIu-23" value="" style="shape=dimension;direction=north;whiteSpace=wrap;html=1;align=right;points=[];verticalAlign=middle;labelBackgroundColor=#ffffff" vertex="1" parent="1">
          <mxGeometry x="210" y="200" width="40" height="50" as="geometry" />
        </mxCell>
        <mxCell id="Dw6zSHdeWeAoXAIMalIu-24" value="280" style="text;html=1;strokeColor=none;fillColor=none;align=center;verticalAlign=middle;whiteSpace=wrap;rounded=0;rotation=270;" vertex="1" parent="1">
          <mxGeometry x="207" y="210.5" width="60" height="30" as="geometry" />
        </mxCell>
        <mxCell id="Dw6zSHdeWeAoXAIMalIu-25" value="1300" style="text;html=1;strokeColor=none;fillColor=none;align=center;verticalAlign=middle;whiteSpace=wrap;rounded=0;" vertex="1" parent="1">
          <mxGeometry x="425" y="890" width="60" height="30" as="geometry" />
        </mxCell>
        <mxCell id="Dw6zSHdeWeAoXAIMalIu-27" value="" style="verticalLabelPosition=bottom;html=1;verticalAlign=top;align=center;shape=mxgraph.floorplan.wall;fillColor=strokeColor;" vertex="1" parent="1">
          <mxGeometry x="395" y="710" width="140" height="10" as="geometry" />
        </mxCell>
        <mxCell id="Dw6zSHdeWeAoXAIMalIu-29" value="" style="endArrow=none;dashed=1;html=1;rounded=0;entryX=-0.025;entryY=0.95;entryDx=0;entryDy=0;entryPerimeter=0;" edge="1" parent="1" target="Dw6zSHdeWeAoXAIMalIu-27">
          <mxGeometry width="50" height="50" relative="1" as="geometry">
            <mxPoint x="105" y="720" as="sourcePoint" />
            <mxPoint x="255" y="700" as="targetPoint" />
          </mxGeometry>
        </mxCell>
        <mxCell id="Dw6zSHdeWeAoXAIMalIu-30" value="100" style="text;html=1;strokeColor=none;fillColor=none;align=center;verticalAlign=middle;whiteSpace=wrap;rounded=0;" vertex="1" parent="1">
          <mxGeometry x="475" y="767" width="60" height="30" as="geometry" />
        </mxCell>
        <mxCell id="Dw6zSHdeWeAoXAIMalIu-31" value="228" style="text;html=1;strokeColor=none;fillColor=none;align=center;verticalAlign=middle;whiteSpace=wrap;rounded=0;rotation=270;" vertex="1" parent="1">
          <mxGeometry x="392" y="730" width="60" height="30" as="geometry" />
        </mxCell>
        <mxCell id="Dw6zSHdeWeAoXAIMalIu-32" value="" style="shape=dimension;direction=west;whiteSpace=wrap;html=1;align=center;points=[];verticalAlign=top;spacingTop=-8;labelBackgroundColor=#ffffff;fontSize=14;fillColor=#0F0F0F;" vertex="1" parent="1">
          <mxGeometry x="395" y="660" width="140" height="60" as="geometry" />
        </mxCell>
        <mxCell id="Dw6zSHdeWeAoXAIMalIu-33" value="1350" style="text;html=1;strokeColor=none;fillColor=none;align=center;verticalAlign=middle;whiteSpace=wrap;rounded=0;" vertex="1" parent="1">
          <mxGeometry x="425" y="630" width="60" height="30" as="geometry" />
        </mxCell>
        <mxCell id="Dw6zSHdeWeAoXAIMalIu-34" value="1995" style="text;html=1;strokeColor=none;fillColor=none;align=center;verticalAlign=middle;whiteSpace=wrap;rounded=0;rotation=270;" vertex="1" parent="1">
          <mxGeometry x="295" y="840" width="60" height="30" as="geometry" />
        </mxCell>
      </root>
    </mxGraphModel>
  </diagram>
</mxfile>
